<?xml version="1.0" standalone="no"?>
<!DOCTYPE svg PUBLIC "-//W3C//DTD SVG 20010904//EN"
 "http://www.w3.org/TR/2001/REC-SVG-20010904/DTD/svg10.dtd">
<svg version="1.0" xmlns="http://www.w3.org/2000/svg"
 width="700.000000pt" height="700.000000pt" viewBox="0 0 700.000000 700.000000"
 preserveAspectRatio="xMidYMid meet">
<metadata>
Created by potrace 1.11, written by Peter Selinger 2001-2013
</metadata>
<g transform="translate(0.000000,700.000000) scale(0.100000,-0.100000)"
fill="#000000" stroke="none">
<path d="M98 6909 c-10 -6 -18 -6619 -8 -6619 3 0 204 199 447 442 l443 443 0
2419 c0 1331 2 2421 3 2423 5 5 5029 4 5034 -1 3 -2 4 -1093 4 -2423 l0 -2420
437 -437 c240 -240 441 -436 446 -434 6 2 12 5969 7 6553 l-1 60 -3401 0
c-1870 0 -3405 -3 -3411 -6z"/>
<path d="M1570 3603 l0 -1828 420 420 420 420 0 987 0 988 1090 0 1090 0 0
-988 0 -988 406 -407 c223 -223 412 -411 420 -418 12 -10 14 251 14 1815 l0
1826 -1930 0 -1930 0 0 -1827z"/>
<path d="M2196 1993 l-417 -418 1717 -3 c945 -1 1719 -1 1721 1 2 2 -184 191
-414 420 l-416 417 -887 0 -886 0 -418 -417z"/>
<path d="M731 538 c-243 -243 -441 -444 -441 -447 0 -4 6159 -6 6390 -2 35 1
25 12 -410 446 l-445 445 -2327 0 -2326 -1 -441 -441z"/>
</g>
</svg>
